<?xml version="1.0" standalone="no"?>
<!DOCTYPE svg PUBLIC "-//W3C//DTD SVG 20010904//EN"
 "http://www.w3.org/TR/2001/REC-SVG-20010904/DTD/svg10.dtd">
<svg version="1.0" xmlns="http://www.w3.org/2000/svg"
 width="512.000000pt" height="512.000000pt" viewBox="0 0 512.000000 512.000000"
 preserveAspectRatio="xMidYMid meet">
<metadata>
Created by potrace 1.14, written by Peter Selinger 2001-2017
</metadata>
<g transform="translate(0.000000,512.000000) scale(0.100000,-0.100000)"
fill="#000000" stroke="none">
<path d="M1125 5109 c-297 -39 -561 -171 -766 -385 -170 -177 -276 -377 -331
-624 l-23 -105 0 -1435 0 -1435 23 -105 c113 -506 487 -880 992 -992 l105 -23
1435 0 1435 0 105 23 c505 112 879 486 992 992 l23 105 0 1435 0 1435 -23 105
c-112 504 -484 876 -988 991 l-99 23 -1405 2 c-799 1 -1435 -2 -1475 -7z m405
-1099 l0 -130 -490 0 -490 0 0 130 0 130 490 0 490 0 0 -130z m1010 0 l0 -130
-490 0 -490 0 0 130 0 130 490 0 490 0 0 -130z m1012 4 c2 -69 1 -128 -1 -130
-2 -2 -224 -4 -493 -4 l-488 0 0 130 0 130 489 0 490 0 3 -126z m1018 -4 l0
-130 -495 0 -495 0 0 130 0 130 495 0 495 0 0 -130z m10 -344 l0 -55 -47 -6
c-146 -19 -219 -39 -252 -69 -53 -47 -51 -17 -51 -986 0 -978 -2 -939 56 -993
30 -28 140 -62 237 -73 l58 -7 -3 -56 -3 -56 -522 0 c-288 0 -1191 1 -2009 3
l-1485 2 3 53 3 52 92 7 c154 12 211 37 239 104 21 50 21 1839 0 1888 -24 59
-107 98 -264 126 l-72 13 0 54 0 53 2010 0 2010 0 0 -54z m-2040 -2566 l0
-130 -490 0 -490 0 0 130 0 130 490 0 490 0 0 -130z m1011 126 c2 -2 3 -61 1
-130 l-3 -126 -490 0 -489 0 0 130 0 130 488 0 c269 0 491 -2 493 -4z m1017
-126 l-3 -130 -490 0 -490 0 -3 130 -3 130 496 0 496 0 -3 -130z m-3038 -5 l0
-125 -490 0 -490 0 0 125 0 125 490 0 490 0 0 -125z"/>
<path d="M1463 3595 c-113 -21 -160 -46 -183 -97 -19 -42 -20 -72 -20 -953 l0
-910 23 -40 c27 -50 85 -80 195 -103 68 -14 97 -14 189 -5 123 12 173 30 206
77 l22 31 3 925 c2 865 1 927 -15 960 -22 43 -73 72 -177 99 -109 29 -160 32
-243 16z"/>
<path d="M2406 3584 c-81 -20 -121 -46 -140 -94 -14 -36 -16 -139 -16 -943 l0
-903 23 -44 c27 -55 78 -82 196 -106 72 -14 101 -15 194 -5 131 13 177 34 207
96 20 40 20 62 20 943 0 998 2 960 -64 1001 -17 11 -71 31 -120 45 -101 30
-205 33 -300 10z"/>
<path d="M3390 3579 c-84 -22 -125 -53 -140 -108 -6 -23 -10 -372 -10 -929 0
-961 -2 -932 51 -981 77 -73 305 -100 465 -55 66 18 110 65 119 126 3 24 5
444 3 935 -3 886 -3 892 -24 920 -29 39 -88 70 -180 93 -99 25 -187 25 -284
-1z"/>
</g>
</svg>
